<svg xmlns="http://www.w3.org/2000/svg" viewBox="0 0 295.02 283.9"><rect x="-0.02" width="295.02" height="283.9" fill="#0179fa"/><g style="isolation:isolate"><text transform="translate(54.78 261.79)" font-size="40.33" fill="gold" font-family="Lato-Bold, Lato" font-weight="700" style="isolation:isolate">Au<tspan x="51.56" y="0" letter-spacing="-0.03em">x</tspan><tspan x="72.13" y="0">onode</tspan></text></g><polygon points="144.53 14.84 144.53 157.3 112.99 209.81 108.69 209.81 140.84 156.28 140.84 19.08 144.53 14.84" fill="gold"/><polygon points="134.58 26.27 134.58 157.24 103.01 209.81 98.71 209.81 130.89 156.22 130.89 30.51 134.58 26.27" fill="gold"/><polygon points="124.63 37.71 124.63 157.24 93.06 209.81 88.76 209.81 120.94 156.22 120.94 41.95 124.63 37.71" fill="gold"/><polygon points="114.21 49.7 111 53.38 111 156.22 78.81 209.81 83.11 209.81 114.69 157.24 114.69 53.38 114.69 49.7 114.69 49.14 114.21 49.7" fill="gold"/><polygon points="150.5 14.84 150.5 157.3 182.03 209.81 186.33 209.81 154.18 156.28 154.18 19.08 150.5 14.84" fill="gold"/><polygon points="160.44 26.27 160.44 157.24 192.01 209.81 196.31 209.81 164.13 156.22 164.13 30.51 160.44 26.27" fill="gold"/><polygon points="170.39 37.71 170.39 157.24 201.96 209.81 206.26 209.81 174.07 156.22 174.07 41.95 170.39 37.71" fill="gold"/><polygon points="180.81 49.7 184.02 53.38 184.02 156.22 216.21 209.81 211.91 209.81 180.33 157.24 180.33 53.38 180.33 49.7 180.33 49.14 180.81 49.7" fill="gold"/><polygon points="230.84 218.49 64.18 218.49 67.32 213.25 227.7 213.25 230.84 218.49" fill="gold"/><rect x="67.34" y="207.97" width="5.28" height="5.28" fill="gold"/><rect x="222.41" y="207.97" width="5.28" height="5.28" fill="gold"/><path d="M147.48,197c-7.71,0-15.91-1.51-15.91-4.33s8.2-4.32,15.91-4.32,15.9,1.51,15.9,4.32S155.19,197,147.48,197Zm0-7.73c-9.28,0-15,2-15,3.4s5.7,3.41,15,3.41,15-2,15-3.41S156.76,189.22,147.48,189.22Z" fill="gold"/><path d="M153.89,207c-1.37,0-3.06-1.61-4.33-3.09a47.23,47.23,0,0,1-5.95-9.36c-3.45-6.9-5.75-14.91-3.23-16.17s7.53,5.4,11,12.3a47.12,47.12,0,0,1,3.9,10.39c.5,2.23.78,5-.67,5.78A1.65,1.65,0,0,1,153.89,207Zm-12.81-27.86a.57.57,0,0,0-.29.07c-1.27.63-.5,6.62,3.64,14.92h0a46.62,46.62,0,0,0,5.83,9.18c2.06,2.41,3.37,3,3.91,2.71s.87-1.66.18-4.75a46.72,46.72,0,0,0-3.82-10.18C146.66,183.34,142.63,179.15,141.08,179.15Z" fill="gold"/><path d="M141.06,207a1.64,1.64,0,0,1-.68-.15c-1.45-.73-1.17-3.55-.67-5.78a47.12,47.12,0,0,1,3.9-10.39c3.44-6.9,8.45-13.55,11-12.3s.21,9.27-3.23,16.17a47.23,47.23,0,0,1-5.95,9.36C144.13,205.4,142.44,207,141.06,207Zm12.82-27.86c-1.55,0-5.58,4.19-9.45,11.95a46.72,46.72,0,0,0-3.82,10.18c-.69,3.09-.36,4.48.18,4.75s1.85-.3,3.91-2.71a47.09,47.09,0,0,0,5.83-9.18c4.14-8.3,4.91-14.29,3.64-14.92A.57.57,0,0,0,153.88,179.15Z" fill="gold"/></svg>